<svg width="138" height="114" viewBox="0 0 138 114" fill="none" xmlns="http://www.w3.org/2000/svg">
<path d="M56.925 79.0875L63.25 40.375C63.25 40.375 63.25 33.25 54.625 33.25C46 33.25 46 40.375 46 40.375V57C46 58.425 46.8625 59.85 48.3 60.8C48.3 66.7375 48.3 78.1375 48.3 79.5625C48.3 81.4625 50.3125 83.125 52.6125 83.125C54.9125 83.125 56.925 81.4625 56.925 79.5625C56.925 79.325 56.925 79.0875 56.925 78.6125C56.925 78.85 56.925 79.0875 56.925 79.0875Z" fill="#607D8B"/>
<path d="M110.688 23.75C110.688 23.75 111.263 23.75 103.5 23.75C95.7375 23.75 89.125 28.5 89.125 28.5L37.375 68.875C37.375 68.875 34.5 71.25 31.625 71.25C28.75 71.25 27.3125 71.25 27.3125 71.25C20.125 71.25 14.375 76 14.375 81.9375C14.375 87.875 20.125 92.625 27.3125 92.625C27.3125 92.625 31.625 92.625 37.375 92.625C46 92.625 51.75 87.875 51.75 87.875L100.625 47.5C100.625 47.5 103.5 45.125 106.375 45.125C109.25 45.125 110.688 45.125 110.688 45.125C117.875 45.125 123.625 40.375 123.625 34.4375C123.625 28.5 117.875 23.75 110.688 23.75Z" fill="#BBDEFB"/>
<path d="M54.625 16.625C59.5125 16.625 63.25 19.7125 63.25 23.75C63.25 27.7875 59.5125 30.875 54.625 30.875C49.7375 30.875 46 27.7875 46 23.75C46 19.7125 49.7375 16.625 54.625 16.625Z" fill="#FFB74D"/>
<path d="M56.925 79.5625C56.925 79.325 56.925 79.0875 56.925 78.6125C56.925 78.85 56.925 78.85 56.925 79.0875L61.2375 50.1125L48.0125 60.5625L48.3 60.8C48.3 66.7375 48.3 78.1375 48.3 79.5625C48.3 81.4625 50.3125 83.125 52.6125 83.125C54.9125 83.125 56.925 81.4625 56.925 79.5625Z" fill="#42A5F5"/>
<path d="M31.625 71.25H37.375V92.625H31.625V71.25ZM100.625 23.75H106.375V45.125H100.625V23.75Z" fill="#90CAF9"/>
<path d="M37.375 95H27.3125C18.6875 95 11.5 89.0625 11.5 81.9375C11.5 74.8125 18.6875 68.875 27.3125 68.875H31.625C32.775 68.875 34.5 67.925 35.3625 67.2125L87.1125 26.8375C87.4 26.6 93.725 21.375 103.5 21.375H110.688C119.312 21.375 126.5 27.3125 126.5 34.4375C126.5 41.5625 119.312 47.5 110.688 47.5H106.375C105.225 47.5 103.5 48.45 102.638 49.1625L53.7625 89.5375C53.475 89.775 47.15 95 37.375 95ZM27.3125 73.625C21.85 73.625 17.25 77.425 17.25 81.9375C17.25 86.45 21.85 90.25 27.3125 90.25H37.375C44.85 90.25 49.7375 86.2125 49.7375 86.2125L98.6125 45.8375C98.9 45.6 102.35 42.75 106.375 42.75H110.688C116.15 42.75 120.75 38.95 120.75 34.4375C120.75 29.925 116.15 26.125 110.688 26.125H103.5C96.025 26.125 91.1375 30.1625 91.1375 30.1625L39.3875 70.5375C39.1 70.775 35.65 73.625 31.625 73.625H27.3125Z" fill="#455A64"/>
</svg>
