<?xml version="1.0" encoding="UTF-8"?>
<svg xmlns="http://www.w3.org/2000/svg" xmlns:xlink="http://www.w3.org/1999/xlink" width="16pt" height="16pt" viewBox="0 0 16 16" version="1.1">
<g id="surface815905">
<path style=" stroke:none;fill-rule:nonzero;fill:rgb(96.078431%,80.784314%,52.156863%);fill-opacity:1;" d="M 12.601562 1.800781 C 11.496094 1.800781 10.601562 2.695312 10.601562 3.800781 C 10.601562 4.90625 11.496094 5.800781 12.601562 5.800781 C 13.703125 5.800781 14.601562 4.90625 14.601562 3.800781 C 14.601562 2.695312 13.703125 1.800781 12.601562 1.800781 Z M 12.601562 1.800781 "/>
<path style=" stroke:none;fill-rule:nonzero;fill:rgb(58.823529%,47.843137%,26.666667%);fill-opacity:1;" d="M 12.601562 2 C 13.59375 2 14.398438 2.808594 14.398438 3.800781 C 14.398438 4.792969 13.59375 5.601562 12.601562 5.601562 C 11.609375 5.601562 10.800781 4.792969 10.800781 3.800781 C 10.800781 2.808594 11.609375 2 12.601562 2 M 12.601562 1.601562 C 11.386719 1.601562 10.398438 2.585938 10.398438 3.800781 C 10.398438 5.015625 11.386719 6 12.601562 6 C 13.816406 6 14.800781 5.015625 14.800781 3.800781 C 14.800781 2.585938 13.816406 1.601562 12.601562 1.601562 Z M 12.601562 1.601562 "/>
<path style=" stroke:none;fill-rule:nonzero;fill:rgb(54.509804%,71.764706%,94.117647%);fill-opacity:1;" d="M 10.601562 3.398438 L 10.601562 2.324219 L 10.550781 2.269531 C 10.542969 2.261719 9.898438 1.507812 9.808594 0.601562 C 10.929688 0.621094 11.472656 0.789062 12.046875 0.964844 C 12.71875 1.167969 13.40625 1.382812 14.992188 1.398438 C 14.9375 1.964844 14.667969 2.246094 14.65625 2.257812 L 14.601562 2.316406 L 14.601562 3.398438 Z M 10.601562 3.398438 "/>
<path style=" stroke:none;fill-rule:nonzero;fill:rgb(30.588235%,47.843137%,70.980392%);fill-opacity:1;" d="M 10.042969 0.808594 C 10.980469 0.84375 11.472656 0.996094 11.988281 1.15625 C 12.609375 1.34375 13.304688 1.558594 14.757812 1.59375 C 14.679688 1.9375 14.523438 2.109375 14.515625 2.117188 L 14.398438 2.234375 L 14.398438 3.199219 L 10.800781 3.199219 L 10.800781 2.25 L 10.703125 2.136719 C 10.695312 2.128906 10.195312 1.546875 10.042969 0.808594 M 9.601562 0.398438 C 9.601562 1.484375 10.398438 2.398438 10.398438 2.398438 L 10.398438 3.601562 L 14.800781 3.601562 L 14.800781 2.398438 C 14.800781 2.398438 15.199219 2 15.199219 1.199219 C 11.941406 1.199219 12.3125 0.398438 9.601562 0.398438 Z M 9.601562 0.398438 "/>
<path style=" stroke:none;fill-rule:nonzero;fill:rgb(37.647059%,49.019608%,54.509804%);fill-opacity:1;" d="M 9.921875 3.800781 L 10.523438 2.601562 L 12.1875 2.601562 C 12.089844 3.277344 11.503906 3.800781 10.800781 3.800781 Z M 9.921875 3.800781 "/>
<path style=" stroke:none;fill-rule:nonzero;fill:rgb(21.568627%,27.843137%,30.980392%);fill-opacity:1;" d="M 11.929688 2.800781 C 11.765625 3.265625 11.320312 3.601562 10.800781 3.601562 L 10.246094 3.601562 L 10.648438 2.800781 L 11.929688 2.800781 M 12.398438 2.398438 L 10.398438 2.398438 L 9.601562 4 L 10.800781 4 C 11.683594 4 12.398438 3.285156 12.398438 2.398438 Z M 12.398438 2.398438 "/>
<path style=" stroke:none;fill-rule:nonzero;fill:rgb(54.509804%,71.764706%,94.117647%);fill-opacity:1;" d="M 9.398438 15.398438 L 9.398438 10.957031 L 6.121094 15.210938 L 4.71875 14.128906 L 9.851562 7.46875 C 10.273438 6.917969 10.910156 6.601562 11.601562 6.601562 L 13.199219 6.601562 C 14.414062 6.601562 15.398438 7.585938 15.398438 8.800781 L 15.398438 15.398438 Z M 9.398438 15.398438 "/>
<path style=" stroke:none;fill-rule:nonzero;fill:rgb(30.588235%,47.843137%,70.980392%);fill-opacity:1;" d="M 13.199219 6.800781 C 14.304688 6.800781 15.199219 7.695312 15.199219 8.800781 L 15.199219 15.199219 L 9.601562 15.199219 L 9.601562 10.367188 L 8.882812 11.296875 L 6.085938 14.929688 L 4.996094 14.089844 L 10.011719 7.589844 C 10.394531 7.085938 10.972656 6.800781 11.601562 6.800781 L 13.199219 6.800781 M 13.199219 6.398438 L 11.601562 6.398438 C 10.820312 6.398438 10.132812 6.773438 9.695312 7.347656 L 4.4375 14.164062 L 6.15625 15.488281 L 9.199219 11.542969 L 9.199219 15.601562 L 15.601562 15.601562 L 15.601562 8.800781 C 15.601562 7.472656 14.527344 6.398438 13.199219 6.398438 Z M 13.199219 6.398438 "/>
<path style=" stroke:none;fill-rule:nonzero;fill:rgb(100%,100%,100%);fill-opacity:1;" d="M 14.03125 7.03125 L 9.628906 13.035156 L 9.628906 15.058594 L 14.953125 7.992188 C 14.796875 7.554688 14.460938 7.203125 14.03125 7.03125 Z M 14.03125 7.03125 "/>
<path style="fill:none;stroke-width:1;stroke-linecap:square;stroke-linejoin:miter;stroke:rgb(21.568627%,27.843137%,30.980392%);stroke-opacity:1;stroke-miterlimit:10;" d="M 172.313965 36.74707 L 183.625 36.74707 " transform="matrix(0.0707965,0,0,0.0707965,0,0)"/>
<path style=" stroke:none;fill-rule:nonzero;fill:rgb(100%,76.862745%,61.176471%);fill-opacity:1;" d="M 2.398438 15.800781 C 1.847656 15.800781 1.398438 15.351562 1.398438 14.800781 L 1.398438 14.199219 L 7.800781 14.199219 L 7.800781 14.800781 C 7.800781 15.351562 7.351562 15.800781 6.800781 15.800781 Z M 2.398438 15.800781 "/>
<path style=" stroke:none;fill-rule:nonzero;fill:rgb(63.137255%,41.568627%,29.019608%);fill-opacity:1;" d="M 7.601562 14.398438 L 7.601562 14.800781 C 7.601562 15.242188 7.242188 15.601562 6.800781 15.601562 L 2.398438 15.601562 C 1.957031 15.601562 1.601562 15.242188 1.601562 14.800781 L 1.601562 14.398438 L 7.601562 14.398438 M 8 14 L 1.199219 14 L 1.199219 14.800781 C 1.199219 15.460938 1.738281 16 2.398438 16 L 6.800781 16 C 7.460938 16 8 15.460938 8 14.800781 Z M 8 14 "/>
<path style=" stroke:none;fill-rule:nonzero;fill:rgb(100%,76.862745%,61.176471%);fill-opacity:1;" d="M 1.199219 14.199219 C 0.648438 14.199219 0.199219 13.75 0.199219 13.199219 L 0.199219 8.800781 C 0.199219 8.25 0.648438 7.800781 1.199219 7.800781 L 1.398438 7.800781 L 1.398438 14.199219 Z M 1.199219 14.199219 "/>
<path style=" stroke:none;fill-rule:nonzero;fill:rgb(63.137255%,41.568627%,29.019608%);fill-opacity:1;" d="M 1.199219 8 L 1.199219 14 C 0.757812 14 0.398438 13.640625 0.398438 13.199219 L 0.398438 8.800781 C 0.398438 8.359375 0.757812 8 1.199219 8 M 1.601562 7.601562 L 1.199219 7.601562 C 0.539062 7.601562 0 8.136719 0 8.800781 L 0 13.199219 C 0 13.863281 0.539062 14.398438 1.199219 14.398438 L 1.601562 14.398438 Z M 1.601562 7.601562 "/>
</g>
</svg>
