<svg xmlns="http://www.w3.org/2000/svg" viewBox="0 0 80 80" width="16" height="16"><path fill="#8b75a1" d="M9.2 58.1H44.8V59.1H9.2z" transform="rotate(-52.46 27.06 58.64)"/><path fill="#8bb7f0" d="M36.2,77.5c-1.4,0-2.6-0.7-3.2-1.9c-0.7-1.2-0.6-2.6,0.1-3.7l7.2-11.1l3.4-12.8l8.2,7.5l-5.2,9.9 l-7.5,10.7C38.5,76.9,37.4,77.5,36.2,77.5z"/><path fill="#4e7ab5" d="M43.9,48.8l7.3,6.7l-5,9.5l-7.5,10.7c-0.6,0.8-1.6,1.4-2.6,1.4c-1.2,0-2.2-0.6-2.8-1.6 c-0.6-1-0.5-2.2,0.1-3.2l7.1-11.1l0.1-0.1l0-0.2L43.9,48.8 M43.4,47l-3.5,13.5l-7.1,11.1c-1.8,2.8,0.2,6.4,3.5,6.4l0,0 c1.4,0,2.6-0.7,3.4-1.8l7.5-10.8l5.4-10.2L43.4,47L43.4,47z"/><path fill="#8bb7f0" d="M72,49.5c-0.7,0-1.4-0.2-2-0.6L59,40.5l-4.2-7.1l3.6-8.9l6.2,11.1l9.4,7.5c1.6,1.1,1.9,3.3,0.9,4.8 C74.2,48.9,73.1,49.5,72,49.5z"/><path fill="#4e7ab5" d="M58.5,25.6l5.7,10.2l0.1,0.2l0.2,0.1l9.4,7.5c1.3,1,1.6,2.8,0.7,4.1C73.9,48.5,73,49,72,49 c-0.6,0-1.2-0.2-1.7-0.5l-10.9-8.4l-4.1-6.8L58.5,25.6 M58.3,23.3l-4.1,10.1l4.4,7.4l11,8.5c0.7,0.5,1.5,0.7,2.3,0.7 c1.3,0,2.5-0.6,3.3-1.8c1.2-1.8,0.8-4.2-1-5.5L65,35.3L58.3,23.3L58.3,23.3z"/><path fill="#f5ce85" d="M58 2.5A7.5 7.5 0 1 0 58 17.5A7.5 7.5 0 1 0 58 2.5Z"/><path fill="#967a44" d="M58,3c3.9,0,7,3.1,7,7s-3.1,7-7,7s-7-3.1-7-7S54.1,3,58,3 M58,2c-4.4,0-8,3.6-8,8s3.6,8,8,8 s8-3.6,8-8S62.4,2,58,2L58,2z"/><path fill="#8bb7f0" d="M60.4,77.5c-1.6,0-3.1-1-3.7-2.5l-5.2-13.8l-8-11c-0.9-1.5-1.2-3.5-0.6-5.2l2.4-7.3L37,48.1 c-0.7,0.9-1.8,1.4-2.9,1.4c-0.8,0-1.6-0.3-2.2-0.8c-0.8-0.6-1.3-1.4-1.4-2.4c-0.1-1,0.1-1.9,0.7-2.7l16.1-20.3 c1.3-1.8,3.5-2.8,5.7-2.8h1.1c2.1,0,4,0.9,5.3,2.4c1.5,1.8,2,4.3,1.5,6.9L54.6,47L64,72.2c0.5,1.2,0.3,2.5-0.5,3.6 C62.8,76.9,61.6,77.5,60.4,77.5z"/><path fill="#4e7ab5" d="M54.1,21c2,0,3.7,0.8,4.9,2.3c1.4,1.7,1.9,4,1.4,6.4l-6.2,17L54.1,47l0.1,0.3l9.3,25.1 c0.4,1.1,0.3,2.2-0.4,3.1c-0.6,0.9-1.7,1.5-2.8,1.5c-1.4,0-2.7-0.9-3.2-2.2L52,61l0-0.1l-0.1-0.1l-8-10.9 c-0.9-1.4-1.1-3.2-0.5-4.8l1.5-4.6l1.8-5.3l-3.5,4.4l-6.5,8.2C36,48.6,35.1,49,34.1,49c-0.7,0-1.4-0.2-1.9-0.7 c-1.4-1.1-1.6-3-0.6-4.4l16.1-20.4C49,22,51,21,53,21H54.1 M54.1,20H53c-2.4,0-4.6,1.1-6.1,3L30.9,43.3c-1.4,1.8-1.1,4.4,0.8,5.8 c0.8,0.6,1.6,0.9,2.5,0.9c1.2,0,2.5-0.6,3.3-1.6l6.5-8.2l-1.5,4.6c-0.6,1.9-0.4,4,0.7,5.7l8,10.9l5.2,13.8 c0.6,1.7,2.3,2.8,4.1,2.8c3.1,0,5.2-3.1,4.1-5.9L55.2,47l6.3-17.1C62.5,24.8,59.3,20,54.1,20L54.1,20z"/><g><path fill="#8bb7f0" d="M42.1 35.8L53.2 35.8 53.2 25.5 50.4 25.5z"/></g><g><path fill="#f78f8f" d="M6.9,71.2c-2.7-2.1-3.2-5.9-1.1-8.6l9.1-12c1.2-1.5,2.9-2.4,4.9-2.4c1.4,0,2.6,0.4,3.7,1.3l6.7,5.1 L13.6,76.3L6.9,71.2z"/><path fill="#c74343" d="M19.8,48.8L19.8,48.8c1.2,0,2.4,0.4,3.4,1.2l6.3,4.8l-16,20.9l-6.3-4.8c-1.2-0.9-2-2.2-2.2-3.7 s0.2-3,1.1-4.2l9.1-12C16.4,49.6,18,48.8,19.8,48.8 M19.8,47.8c-2,0-4,0.9-5.3,2.6l-9.1,12c-2.2,2.9-1.7,7.1,1.2,9.3l7.1,5.4 l17.2-22.5l-7.1-5.4C22.6,48.2,21.2,47.8,19.8,47.8L19.8,47.8z"/></g><g><path fill="#fcaeae" d="M7.2,70.8c-1.2-0.9-2-2.2-2.2-3.7s0.2-3,1.1-4.2l9.1-12c1.1-1.4,2.7-2.2,4.5-2.2 c1.2,0,2.4,0.4,3.4,1.2L7.2,70.8z"/></g><g><path fill="#dcd5f2" d="M12 70.5A3.5 3.5 0 1 0 12 77.5A3.5 3.5 0 1 0 12 70.5Z"/><path fill="#8b75a1" d="M12,71c1.7,0,3,1.3,3,3s-1.3,3-3,3s-3-1.3-3-3S10.3,71,12,71 M12,70c-2.2,0-4,1.8-4,4s1.8,4,4,4 s4-1.8,4-4S14.2,70,12,70L12,70z"/></g></svg>